<?xml version="1.0" encoding="UTF-8" standalone="no"?><svg xmlns:svg="http://www.w3.org/2000/svg" xmlns="http://www.w3.org/2000/svg" xmlns:xlink="http://www.w3.org/1999/xlink" version="1.0" width="100px" height="100px" viewBox="0 0 128 128" xml:space="preserve"><g><path d="M80.53 2.18a2 2 0 0 1 1.42 2.45L74.7 31.67a2 2 0 0 1-3.86-1.03L78.08 3.6a2 2 0 0 1 2.45-1.42z" fill="#fffaed" fill-opacity="0.1"/><path d="M80.53 2.18a2 2 0 0 1 1.42 2.45L74.7 31.67a2 2 0 0 1-3.86-1.03L78.08 3.6a2 2 0 0 1 2.45-1.42z" fill="#fffaed" fill-opacity="0.1" transform="rotate(15 64 64)"/><path d="M80.53 2.18a2 2 0 0 1 1.42 2.45L74.7 31.67a2 2 0 0 1-3.86-1.03L78.08 3.6a2 2 0 0 1 2.45-1.42z" fill="#fffaed" fill-opacity="0.1" transform="rotate(30 64 64)"/><path d="M80.53 2.18a2 2 0 0 1 1.42 2.45L74.7 31.67a2 2 0 0 1-3.86-1.03L78.08 3.6a2 2 0 0 1 2.45-1.42z" fill="#fffaed" fill-opacity="0.1" transform="rotate(45 64 64)"/><path d="M80.53 2.18a2 2 0 0 1 1.42 2.45L74.7 31.67a2 2 0 0 1-3.86-1.03L78.08 3.6a2 2 0 0 1 2.45-1.42z" fill="#fffaed" fill-opacity="0.1" transform="rotate(60 64 64)"/><path d="M80.53 2.18a2 2 0 0 1 1.42 2.45L74.7 31.67a2 2 0 0 1-3.86-1.03L78.08 3.6a2 2 0 0 1 2.45-1.42z" fill="#fffaed" fill-opacity="0.1" transform="rotate(75 64 64)"/><path d="M80.53 2.18a2 2 0 0 1 1.42 2.45L74.7 31.67a2 2 0 0 1-3.86-1.03L78.08 3.6a2 2 0 0 1 2.45-1.42z" fill="#fffaed" fill-opacity="0.1" transform="rotate(90 64 64)"/><path d="M80.53 2.18a2 2 0 0 1 1.42 2.45L74.7 31.67a2 2 0 0 1-3.86-1.03L78.08 3.6a2 2 0 0 1 2.45-1.42z" fill="#fffaed" fill-opacity="0.1" transform="rotate(105 64 64)"/><path d="M80.53 2.18a2 2 0 0 1 1.42 2.45L74.7 31.67a2 2 0 0 1-3.86-1.03L78.08 3.6a2 2 0 0 1 2.45-1.42z" fill="#fffaed" fill-opacity="0.1" transform="rotate(120 64 64)"/><path d="M80.53 2.18a2 2 0 0 1 1.42 2.45L74.7 31.67a2 2 0 0 1-3.86-1.03L78.08 3.6a2 2 0 0 1 2.45-1.42z" fill="#fffaed" fill-opacity="0.1" transform="rotate(135 64 64)"/><path d="M80.53 2.18a2 2 0 0 1 1.42 2.45L74.7 31.67a2 2 0 0 1-3.86-1.03L78.08 3.6a2 2 0 0 1 2.45-1.42z" fill="#fffaed" fill-opacity="0.1" transform="rotate(150 64 64)"/><path d="M80.53 2.18a2 2 0 0 1 1.42 2.45L74.7 31.67a2 2 0 0 1-3.86-1.03L78.08 3.6a2 2 0 0 1 2.45-1.42z" fill="#fffaed" fill-opacity="0.1" transform="rotate(165 64 64)"/><path d="M80.53 2.18a2 2 0 0 1 1.42 2.45L74.7 31.67a2 2 0 0 1-3.86-1.03L78.08 3.6a2 2 0 0 1 2.45-1.42z" fill="#fffaed" fill-opacity="0.1" transform="rotate(180 64 64)"/><path d="M80.53 2.18a2 2 0 0 1 1.42 2.45L74.7 31.67a2 2 0 0 1-3.86-1.03L78.08 3.6a2 2 0 0 1 2.45-1.42z" fill="#fffaed" fill-opacity="0.1" transform="rotate(195 64 64)"/><path d="M80.53 2.18a2 2 0 0 1 1.42 2.45L74.7 31.67a2 2 0 0 1-3.86-1.03L78.08 3.6a2 2 0 0 1 2.45-1.42z" fill="#fffaed" fill-opacity="0.1" transform="rotate(210 64 64)"/><path d="M80.53 2.18a2 2 0 0 1 1.42 2.45L74.7 31.67a2 2 0 0 1-3.86-1.03L78.08 3.6a2 2 0 0 1 2.45-1.42z" fill="#fff5dc" fill-opacity="0.2" transform="rotate(225 64 64)"/><path d="M80.53 2.18a2 2 0 0 1 1.42 2.45L74.7 31.67a2 2 0 0 1-3.86-1.03L78.08 3.6a2 2 0 0 1 2.45-1.42z" fill="#fff0ca" fill-opacity="0.3" transform="rotate(240 64 64)"/><path d="M80.53 2.18a2 2 0 0 1 1.42 2.45L74.7 31.67a2 2 0 0 1-3.86-1.03L78.08 3.6a2 2 0 0 1 2.45-1.42z" fill="#ffebb9" fill-opacity="0.4" transform="rotate(255 64 64)"/><path d="M80.53 2.18a2 2 0 0 1 1.42 2.45L74.7 31.67a2 2 0 0 1-3.86-1.03L78.08 3.6a2 2 0 0 1 2.45-1.42z" fill="#fee5a7" fill-opacity="0.5" transform="rotate(270 64 64)"/><path d="M80.53 2.18a2 2 0 0 1 1.42 2.45L74.7 31.67a2 2 0 0 1-3.86-1.03L78.08 3.6a2 2 0 0 1 2.45-1.42z" fill="#fee095" fill-opacity="0.6" transform="rotate(285 64 64)"/><path d="M80.53 2.18a2 2 0 0 1 1.42 2.45L74.7 31.67a2 2 0 0 1-3.86-1.03L78.08 3.6a2 2 0 0 1 2.45-1.42z" fill="#fedb83" fill-opacity="0.7" transform="rotate(300 64 64)"/><path d="M80.53 2.18a2 2 0 0 1 1.42 2.45L74.7 31.67a2 2 0 0 1-3.86-1.03L78.08 3.6a2 2 0 0 1 2.45-1.42z" fill="#fed672" fill-opacity="0.8" transform="rotate(315 64 64)"/><path d="M80.53 2.18a2 2 0 0 1 1.42 2.45L74.7 31.67a2 2 0 0 1-3.86-1.03L78.08 3.6a2 2 0 0 1 2.45-1.42z" fill="#fed160" fill-opacity="0.9" transform="rotate(330 64 64)"/><path d="M64 0a2 2 0 0 1 2 2v60a2 2 0 0 1-4 0V2a2 2 0 0 1 2-2z" fill="#fecc4f" fill-opacity="1"/><animateTransform attributeName="transform" type="rotate" values="0 64 64;15 64 64;30 64 64;45 64 64;60 64 64;75 64 64;90 64 64;105 64 64;120 64 64;135 64 64;150 64 64;165 64 64;180 64 64;195 64 64;210 64 64;225 64 64;240 64 64;255 64 64;270 64 64;285 64 64;300 64 64;315 64 64;330 64 64;345 64 64" calcMode="discrete" dur="3120ms" repeatCount="indefinite"></animateTransform></g></svg>