<svg id="Capa_1" enable-background="new 0 0 512.004 512.004" height="512" viewBox="0 0 512.004 512.004" width="512" xmlns="http://www.w3.org/2000/svg"><g><g><g fill="#eefaff"><path d="m70.002 226.003v216c0 33.14 26.86 60 60 60h252c33.14 0 60-26.86 60-60 0-25.274 0-189.632 0-216z"/><circle cx="436.002" cy="136.003" r="30"/><path d="m376.002 211.003c0 5.26-.9 10.31-2.56 15-9.531 0-74.943 0-84.88 0-1.66-4.69-2.56-9.74-2.56-15 0-24.85 20.15-45 45-45s45 20.15 45 45z"/></g><path d="m316.002 226.003v90c0 16.57-13.43 30-30 30s-30-13.43-30-30-13.43-30-30-30-30 13.43-30 30v60c0 16.57-13.43 30-30 30s-30-13.43-30-30v-150z" fill="#ffda8f"/><path d="m261.272 43.373 10.26 28.19-56.39 20.53v-.01l-10.26-28.19c-5.66-15.57 2.36-32.78 17.93-38.45 15.57-5.66 32.79 2.36 38.46 17.93z" fill="#8690a6"/></g><g><path d="m436.002 176.003c22.056 0 40-17.944 40-40s-17.944-40-40-40-40 17.944-40 40 17.944 40 40 40zm0-60c11.028 0 20 8.972 20 20s-8.972 20-20 20-20-8.972-20-20 8.972-20 20-20z"/><path d="m36.606 157.074c1.888 5.191 7.63 7.867 12.816 5.977 371.846-135.349 297.152-108.157 394.67-143.651 5.19-1.889 7.866-7.627 5.977-12.816-1.888-5.189-7.623-7.868-12.816-5.977l-159.744 58.139-6.841-18.795c-7.544-20.717-30.546-31.439-51.278-23.904-20.715 7.544-31.439 30.54-23.905 51.266l6.843 18.803-159.746 58.141c-5.19 1.889-7.866 7.627-5.976 12.817zm189.622-122.232c10.374-3.77 21.874 1.593 25.647 11.951l6.841 18.794-37.594 13.687-6.842-18.798c-3.767-10.363 1.595-21.863 11.948-25.634z"/><path d="m60.002 385.278v56.726c0 38.598 31.402 70 70 70h81c5.522 0 10-4.478 10-10s-4.478-10-10-10h-81c-27.57 0-50-22.43-50-50v-206h46v140c0 22.056 17.944 40 40 40s40-17.944 40-40v-60c0-11.028 8.972-20 20-20s20 8.972 20 20c0 22.056 17.944 40 40 40s40-17.944 40-40v-80h106v206c0 27.57-22.43 50-50 50h-81c-5.522 0-10 4.478-10 10s4.478 10 10 10h81c38.598 0 70-31.402 70-70v-56.726c33.876-4.869 60-34.073 60-69.274 0-22.056-17.944-40-40-40h-20v-50c0-5.522-4.478-10-10-10h-56.23c.149-1.656.23-3.323.23-5 0-30.327-24.673-55-55-55s-55 24.673-55 55c0 1.677.081 3.344.23 5h-206.23c-5.522 0-10 4.478-10 10v50h-20c-22.056 0-40 17.944-40 40 0 35.201 26.124 64.405 60 69.274zm412-89.275c11.028 0 20 8.972 20 20 0 24.146-17.205 44.348-40 48.994v-68.994zm-166 20c0 11.028-8.972 20-20 20s-20-8.972-20-20c0-22.056-17.944-40-40-40s-40 17.944-40 40v60c0 11.028-8.972 20-20 20s-20-8.972-20-20v-140h160zm-10-105c0-19.299 15.701-35 35-35s35 15.701 35 35c0 1.685-.125 3.354-.36 5h-69.281c-.234-1.646-.359-3.314-.359-5zm-256 85h20v68.994c-22.795-4.646-40-24.847-40-48.994 0-11.028 8.972-20 20-20z"/><circle cx="256.002" cy="502.004" r="10"/></g></g></svg>