<svg id="Capa_1" enable-background="new 0 0 512 512" height="512" viewBox="0 0 512 512" width="512" xmlns="http://www.w3.org/2000/svg"><path d="m256 0h-45v91h45 45v-91z" fill="#5ab267"/><path d="m256 0h45v91h-45z" fill="#288c64"/><path d="m256 348.578-72.026 51.885c6.108 31.304 21.27 59.78 43.843 82.354l28.183 29.183 28.184-29.184c22.573-22.573 37.734-51.05 43.843-82.354z" fill="#288c64"/><path d="m328.026 400.463-72.026-51.885v163.422l28.184-29.184c22.573-22.573 37.734-51.049 43.842-82.353z" fill="#17734e"/><path d="m385.683 334.223-80.288-23.745-35.581 82.837c18.164 15.747 40.049 27.363 63.296 33.589l38.496 10.313 10.313-38.496c5.668-21.139 6.942-42.848 3.764-64.498z" fill="#288c64"/><path d="m191.605 310.478-65.288 23.745c-3.179 21.65-1.904 43.359 3.765 64.497l10.313 38.496 38.496-10.313c23.247-6.226 45.132-17.842 63.296-33.589z" fill="#5ab267"/><path d="m256 264.789-73.638 42.041c4.556 34.702 20.698 67.441 45.454 92.197l28.184 28.184 28.184-28.184c24.756-24.756 40.898-57.495 45.454-92.197z" fill="#8cd96b"/><path d="m329.638 306.83-73.638-42.041v162.422l28.184-28.184c24.755-24.756 40.898-57.495 45.454-92.197z" fill="#5ab267"/><path d="m184.105 205.478-91.772 36.431c-7.002 26.777-6.929 55.063.249 81.812l10.313 38.496 38.496-10.313c37.822-10.137 70.518-33.721 92.065-66.387z" fill="#288c64"/><path d="m419.667 241.908-91.772-36.431-49.351 80.039c21.548 32.666 54.243 56.25 92.065 66.387l38.496 10.313 10.313-38.496c7.178-26.748 7.251-55.034.249-81.812z" fill="#17734e"/><path d="m256 144.789-73.286 74.517c4.951 33.735 20.977 65.596 45.103 89.722l28.183 28.183 28.184-28.184c24.126-24.126 40.151-55.986 45.103-89.722z" fill="#5ab267"/><path d="m329.286 219.306-73.286-74.517v192.422l28.184-28.184c24.126-24.126 40.151-55.986 45.102-89.721z" fill="#288c64"/><path d="m280.858 61h-24.858-24.858c-88.175 0-160.142 71.351-160.142 159.858v40.142h40.142c42.686 0 82.837-16.924 113.042-47.114 13.597-13.603 24.001-29.429 31.816-46.388 7.815 16.959 18.219 32.785 31.816 46.388 30.205 30.19 70.357 47.114 113.042 47.114h40.142v-40.142c0-88.185-71.645-159.858-160.142-159.858z" fill="#8cd96b"/><path d="m400.858 261h40.142v-40.142c0-88.185-71.645-159.858-160.142-159.858h-24.858v106.498c7.815 16.959 18.219 32.785 31.816 46.388 30.205 30.19 70.357 47.114 113.042 47.114z" fill="#5ab267"/></svg>