<?xml version="1.0" encoding="UTF-8"?>
<svg xmlns="http://www.w3.org/2000/svg" xmlns:xlink="http://www.w3.org/1999/xlink" width="512" height="512" viewBox="0 0 48 60" version="1.1"><!-- Generator: Sketch 51.3 (57544) - http://www.bohemiancoding.com/sketch --><title>001 - Malt</title><desc>Created with Sketch.</desc><defs/><g id="Page-1" stroke="none" stroke-width="1" fill="none" fill-rule="evenodd"><g id="001---Malt" transform="translate(1.000000, 1.000000)"><path d="M45,20.42 C45,21.21 43.75,22.28 41.59,23.29 C37.1753281,25.1802795 32.440892,26.2120132 27.64,26.33 C26.14,26.39 24.59,26.42 23,26.42 C20.11,26.42 17.35,26.32 14.82,26.14 C6.72,25.54 1,22.1 1,20.42 L1,20.41 C1.03,18.31 9.91,16.6 21.19,16.44 L31.3,16.71 C39.33,17.31 45,18.74 45,20.42 Z" id="Shape" fill="#624421" fill-rule="nonzero"/><path d="M42,22.42 C41.9703587,22.7493173 41.8251158,23.0575155 41.59,23.29 C37.1753281,25.1802795 32.440892,26.2120132 27.64,26.33 C26.14,26.39 24.59,26.42 23,26.42 C20.11,26.42 17.35,26.32 14.82,26.14 C6.72,25.54 1,22.1 1,20.42 L1,20.41 C4.53,19.31 10.85,18.54 18.19,18.44 L28.3,18.71 C36.33,19.31 42,20.74 42,22.42 Z" id="Shape" fill="#825A2C" fill-rule="nonzero"/><path d="M41,6.59 C40.9414839,6.65183068 40.877932,6.70869291 40.81,6.76 L40.3,7.24 L31.06,15.96 L28.89,14.17 L27.5,13.02 L34.22,2.46 L34.32,2.3 L34.71,1.68 L34.72,1.67 C34.7483903,1.60531852 34.7853918,1.54477056 34.83,1.49 L41,6.59 Z" id="Shape" fill="#0377BC" fill-rule="nonzero"/><path d="M38,5.59 C37.9414839,5.65183068 37.877932,5.70869291 37.81,5.76 L37.3,6.24 L28.89,14.17 L27.5,13.02 L34.22,2.46 L38,5.59 Z" id="Shape" fill="#02A9F4" fill-rule="nonzero"/><path d="M41,6.59 C40.4,7.31 38.6,7.03 36.97,5.83 C36.86,5.75 36.75,5.67 36.64,5.58 C34.94,4.18 34.2,2.26 34.83,1.49 C35.7546435,0.377707616 37.2070855,-0.149758136 38.63,0.11 C39.3085208,0.223006595 39.9440992,0.51661618 40.47,0.96 C42.1703042,2.36871371 42.4075338,4.88871896 41,6.59 Z" id="Shape" fill="#283593" fill-rule="nonzero"/><path d="M39,5.59 C38.4211134,6.04248995 37.6384447,6.13502222 36.97,5.83 C36.86,5.75 36.75,5.67 36.64,5.58 C34.94,4.18 34.2,2.26 34.83,1.49 C35.7546435,0.377707616 37.2070855,-0.149758136 38.63,0.11 C40.1890673,1.54854682 40.3515423,3.95493392 39,5.59 Z" id="Shape" fill="#3F51B5" fill-rule="nonzero"/><path d="M31.46,17.92 C31.4593837,19.0817002 31.0525739,20.2066178 30.31,21.1 L27.64,24.33 L23.78,26.28 L20.87,26.24 L19.25,26.21 L14.82,24.14 L21.19,16.44 L22.6,14.73 C23.2116865,13.9845463 24.0288308,13.4351471 24.95,13.15 C26.565975,12.6294934 28.3359448,12.9729204 29.64,14.06 C30.2609392,14.5683009 30.7483864,15.2205189 31.06,15.96 C31.1653714,16.2011598 31.2457902,16.4524685 31.3,16.71 C31.4084313,17.1041156 31.4622668,17.5112467 31.46,17.92 Z" id="Shape" fill="#545C60" fill-rule="nonzero"/><path d="M28.46,17.92 C28.4593837,19.0817002 28.0525739,20.2066178 27.31,21.1 L24.64,24.33 L20.87,26.24 L19.25,26.21 L14.82,24.14 L21.19,16.44 L22.6,14.73 C23.2116865,13.9845463 24.0288308,13.4351471 24.95,13.15 C26.3500435,13.5827087 27.4879752,14.610872 28.06,15.96 C28.1653714,16.2011598 28.2457902,16.4524685 28.3,16.71 C28.4084313,17.1041156 28.4622668,17.5112467 28.46,17.92 Z" id="Shape" fill="#7F8E94" fill-rule="nonzero"/><path d="M26.04,43.09 C25.61,43.37 24.57,42.78 24.19,42.53 C24.18,42.53 24.18,42.52 24.17,42.52 C24.1222847,42.4888502 24.0786179,42.4519013 24.04,42.41 L24.04,42.59 C23.9286035,43.5326911 23.4684169,44.3995543 22.75,45.02 C22.71,45.05 22.67,45.09 22.63,45.12 C22.4345798,45.30726 22.2238459,45.4778541 22,45.63 C21.93,45.67 21.87,45.72 21.8,45.76 C22.88,45.08 24.58,44.55 25.78,45.19 C25.7643104,45.134486 25.7542595,45.0775311 25.75,45.02 C25.69,44.59 25.6,43.37 26.04,43.09 Z M28.41,41.6 C28.302783,41.1374827 28.2457864,40.6647465 28.24,40.19 C27.9570141,41.3374054 27.2400833,42.3303545 26.24,42.96 C26.1756651,43.0068192 26.1089057,43.0502128 26.04,43.09 C27.0698593,42.3975522 28.3270783,42.1289157 29.55,42.34 C29.147435,42.1299711 28.765722,41.8821924 28.41,41.6 Z M45.4,53.89 C45.29,53.55 45.15,53.22 45.05,52.9 C44.39,50.78 44.54,52.13 44.62,49.95 C44.87,43.13 44.73,34.77 44.31,27.95 L1.69,27.95 C1.27,34.77 1.13,43.13 1.38,49.95 C1.46,52.13 1.61,50.78 0.95,52.9 C0.85,53.22 0.71,53.55 0.6,53.89 C0.330353868,54.4890316 0.319501796,55.1727122 0.57,55.78 C0.707447972,56.057427 0.909849879,56.2975648 1.16,56.48 C1.6588721,56.8671914 2.31094618,56.9968652 2.92,56.83 L4.79,56.3 C5.52,56.09 6.26,55.85 7,55.68 C7.97204785,55.4166794 8.99620101,55.4132311 9.97,55.67 C11.91,56.24 13.55,57.31 15.57,57.65 C17.1654179,57.8849231 18.7777647,57.9852766 20.39,57.95 L24,57.95 C26.1479526,58.0302496 28.2988504,57.9298966 30.43,57.65 C32.44,57.31 34.07,56.25 36,55.68 C36.01,55.68 36.02,55.67 36.03,55.67 C37.81,55.15 39.51,55.81 41.21,56.3 L41.84,56.48 L43.08,56.83 C44.0136583,57.0873006 44.998756,56.6471505 45.43,55.78 C45.6804982,55.1727122 45.6696461,54.4890316 45.4,53.89 Z M26.04,43.09 C25.61,43.37 24.57,42.78 24.19,42.53 C24.18,42.53 24.18,42.52 24.17,42.52 C24.1222847,42.4888502 24.0786179,42.4519013 24.04,42.41 L24.04,42.59 C23.9286035,43.5326911 23.4684169,44.3995543 22.75,45.02 C22.71,45.05 22.67,45.09 22.63,45.12 C22.4345798,45.30726 22.2238459,45.4778541 22,45.63 C21.93,45.67 21.87,45.72 21.8,45.76 C22.88,45.08 24.58,44.55 25.78,45.19 C25.7643104,45.134486 25.7542595,45.0775311 25.75,45.02 C25.69,44.59 25.6,43.37 26.04,43.09 Z M26.04,43.09 C25.61,43.37 24.57,42.78 24.19,42.53 C24.18,42.53 24.18,42.52 24.17,42.52 C24.1222847,42.4888502 24.0786179,42.4519013 24.04,42.41 L24.04,42.59 C23.9286035,43.5326911 23.4684169,44.3995543 22.75,45.02 C22.71,45.05 22.67,45.09 22.63,45.12 C22.4345798,45.30726 22.2238459,45.4778541 22,45.63 C21.93,45.67 21.87,45.72 21.8,45.76 C22.88,45.08 24.58,44.55 25.78,45.19 C25.7643104,45.134486 25.7542595,45.0775311 25.75,45.02 C25.69,44.59 25.6,43.37 26.04,43.09 Z" id="Shape" fill="#FEC108" fill-rule="nonzero"/><path d="M23.04,43.09 C22.6,43.37 21.54,42.76 21.17,42.52 C21.1222847,42.4888502 21.0786179,42.4519013 21.04,42.41 C20.909241,43.7461523 20.1522532,44.9410055 19,45.63 C18.93,45.67 18.87,45.72 18.8,45.76 C19.9114025,44.9716662 21.3226717,44.7358405 22.63,45.12 C22.6818328,45.1391857 22.7320016,45.1625978 22.78,45.19 C22.7643104,45.134486 22.7542595,45.0775311 22.75,45.02 C22.69,44.59 22.6,43.37 23.04,43.09 Z M25.41,41.6 C25.302783,41.1374827 25.2457864,40.6647465 25.24,40.19 C24.9570141,41.3374054 24.2400833,42.3303545 23.24,42.96 C23.1756651,43.0068192 23.1089057,43.0502128 23.04,43.09 C22.6,43.37 22.69,44.59 22.75,45.02 C23.4684169,44.3995543 23.9286035,43.5326911 24.04,42.59 L24.19,42.53 C24.9408651,42.2359634 25.7617659,42.1698739 26.55,42.34 C26.147435,42.1299711 25.765722,41.8821924 25.41,41.6 Z M42.4,53.89 C42.29,53.55 42.15,53.22 42.05,52.9 C41.39,50.78 41.54,52.13 41.62,49.95 C41.87,43.13 41.73,34.77 41.31,27.95 L1.69,27.95 C1.27,34.77 1.13,43.13 1.38,49.95 C1.46,52.13 1.61,50.78 0.95,52.9 C0.85,53.22 0.71,53.55 0.6,53.89 C0.330353868,54.4890316 0.319501796,55.1727122 0.57,55.78 C0.707447972,56.057427 0.909849879,56.2975648 1.16,56.48 L1.79,56.3 C3.49,55.81 5.19,55.15 6.97,55.67 C6.98,55.67 6.99,55.68 7,55.68 C8.93,56.25 10.56,57.31 12.57,57.65 C14.7011496,57.9298966 16.8520474,58.0302496 19,57.95 L22.61,57.95 C24.2222353,57.9852766 25.8345821,57.8849231 27.43,57.65 C29.45,57.31 31.09,56.24 33.03,55.67 C34.003799,55.4132311 35.0279522,55.4166794 36,55.68 C36.74,55.85 37.48,56.09 38.21,56.3 L40.08,56.83 C40.6890538,56.9968652 41.3411279,56.8671914 41.84,56.48 C42.0901501,56.2975648 42.292552,56.057427 42.43,55.78 C42.6804982,55.1727122 42.6696461,54.4890316 42.4,53.89 Z M23.04,43.09 C22.6,43.37 21.54,42.76 21.17,42.52 C21.1222847,42.4888502 21.0786179,42.4519013 21.04,42.41 C20.909241,43.7461523 20.1522532,44.9410055 19,45.63 C18.93,45.67 18.87,45.72 18.8,45.76 C19.9114025,44.9716662 21.3226717,44.7358405 22.63,45.12 C22.6818328,45.1391857 22.7320016,45.1625978 22.78,45.19 C22.7643104,45.134486 22.7542595,45.0775311 22.75,45.02 C22.69,44.59 22.6,43.37 23.04,43.09 Z M23.04,43.09 C22.6,43.37 21.54,42.76 21.17,42.52 C21.1222847,42.4888502 21.0786179,42.4519013 21.04,42.41 C20.909241,43.7461523 20.1522532,44.9410055 19,45.63 C18.93,45.67 18.87,45.72 18.8,45.76 C19.9114025,44.9716662 21.3226717,44.7358405 22.63,45.12 C22.6818328,45.1391857 22.7320016,45.1625978 22.78,45.19 C22.7643104,45.134486 22.7542595,45.0775311 22.75,45.02 C22.69,44.59 22.6,43.37 23.04,43.09 Z" id="Shape" fill="#FFDC00" fill-rule="nonzero"/><path d="M45,20.42 L45,26.95 C44.9437921,27.3747432 44.6871413,27.7467009 44.31,27.95 C43.7479354,28.316489 43.1391489,28.6057467 42.5,28.81 C42.7856771,28.6114101 42.9687553,28.2965156 43,27.95 L43,22.09 C44.29,21.58 45,21.02 45,20.42 Z" id="Shape" fill="#6D4122" fill-rule="nonzero"/><path d="M43,22.09 L43,27.95 C42.9687553,28.2965156 42.7856771,28.6114101 42.5,28.81 C38.82,30.08 31.47,30.95 23,30.95 C12.75,30.95 4.13,29.68 1.69,27.95 C1.31285868,27.7467009 1.05620787,27.3747432 1,26.95 L1,20.42 C1,22.1 6.72,23.54 14.82,24.14 C17.35,24.32 20.11,24.42 23,24.42 C24.59,24.42 26.14,24.39 27.64,24.33 C34.1,24.08 39.5,23.31 42.49,22.27 C42.67,22.21 42.84,22.15 43,22.09 Z" id="Shape" fill="#91562D" fill-rule="nonzero"/><path d="M43,21.42 L43,22.09 C42.84,22.15 42.67,22.21 42.49,22.27 C42.7805157,22.0790623 42.9682388,21.7661905 43,21.42 Z" id="Shape" fill="#6D4122" fill-rule="nonzero"/><path d="M21.57,47.91 C21.57,47.9 21.56,47.89 21.56,47.87" id="Shape" fill="#B19046" fill-rule="nonzero"/><path d="M19.79,45.07 C19.7749512,45.062519 19.7613954,45.0523522 19.75,45.04" id="Shape" fill="#B19046" fill-rule="nonzero"/><path d="M19.21,39.36 C19.1836117,39.3874939 19.1601524,39.4176559 19.14,39.45" id="Shape" fill="#B19046" fill-rule="nonzero"/><path d="M28.41,34.8 C27.8752112,35.3413232 27.525207,36.0378316 27.41,36.79 C27.31,37.82 28.07,38.5 28.24,39.46 C28.2516027,39.5227161 28.2582897,39.5862426 28.26,39.65 L28.26,39.67 C28.25,39.84 28.24,40.01 28.24,40.16 L28.24,40.19 C27.9570141,41.3374054 27.2400833,42.3303545 26.24,42.96 C26.1756651,43.0068192 26.1089057,43.0502128 26.04,43.09 C25.6,43.37 24.54,42.76 24.17,42.52 C24.1222847,42.4888502 24.0786179,42.4519013 24.04,42.41 C24.03,42.31 24.02,42.22 24.01,42.12 C23.84,41.16 23.08,40.48 23.18,39.45 C23.2908997,38.6964644 23.6415436,37.998683 24.18,37.46 C24.3258247,37.3015107 24.3537778,37.0674527 24.2493782,36.8790796 C24.1449786,36.6907064 23.9316875,36.5903501 23.72,36.63 C23.6257044,36.6452112 23.5322489,36.6652374 23.44,36.69 C24.5068161,35.2033285 26.1373206,34.2199644 27.95,33.97 C28.1616875,33.9303501 28.3749786,34.0307064 28.4793782,34.2190796 C28.5837778,34.4074527 28.5558247,34.6415107 28.41,34.8 Z" id="Shape" fill="#FF9801" fill-rule="nonzero"/><path d="M18.95,42.11 C18.84,43.14 19.6,43.82 19.77,44.78 C19.7862709,44.8757638 19.7929706,44.9729092 19.79,45.07 C19.6766937,46.4067359 18.9242038,47.6062495 17.77,48.29 L17.68,48.35 C17.6453752,48.3677643 17.6119684,48.3878084 17.58,48.41 C17.58,48.4126522 17.5789464,48.4151957 17.5770711,48.4170711 C17.5751957,48.4189464 17.5726522,48.42 17.57,48.42 C17.13,48.69 16.07,48.08 15.71,47.83 C13.9710533,46.5462453 13.5561159,44.1184204 14.77,42.33 C15.7560313,40.7495025 17.3727871,39.668024 19.21,39.36 C19.3017694,39.330805 19.3952882,39.3074253 19.49,39.29 C19.697665,39.2557007 19.9045741,39.3551236 20.0075509,39.538691 C20.1105277,39.7222583 20.0875197,39.9506591 19.95,40.11 C19.409398,40.6511586 19.0585657,41.3528232 18.95,42.11 Z" id="Shape" fill="#FF9801" fill-rule="nonzero"/><path d="M35.09,45.33 C34.0732529,46.8520325 32.4813586,47.8952467 30.68,48.22 C30.75,48.14 30.8,48.06 30.86,47.99 C30.9929357,47.8164034 30.9976565,47.5765648 30.8716548,47.3978716 C30.7456532,47.2191784 30.5181578,47.1430819 30.31,47.21 C29.5894624,47.4580401 28.8089695,47.47204 28.08,47.25 C27.11,46.89 26.83,45.92 26.03,45.34 C25.95,45.29 25.87,45.24 25.78,45.19 C25.7643104,45.134486 25.7542595,45.0775311 25.75,45.02 C25.69,44.59 25.6,43.37 26.04,43.09 C27.0698593,42.3975522 28.3270783,42.1289157 29.55,42.34 C29.56,42.34 29.56,42.34 29.57,42.35 C29.5909064,42.3535539 29.6111425,42.3602993 29.63,42.37 C29.64,42.37 29.65,42.38 29.66,42.38 C29.79,42.45 29.92,42.51 30.06,42.57 C30.07,42.57 30.08,42.58 30.09,42.58 C30.1487922,42.6095804 30.2055808,42.6429854 30.26,42.68 C31.06,43.25 31.35,44.23 32.32,44.59 C33.0489982,44.8118345 33.8294263,44.7978358 34.55,44.55 C34.7566066,44.4897397 34.9785935,44.5684468 35.1010961,44.745395 C35.2235987,44.9223433 35.2191291,45.1578278 35.09,45.33 Z" id="Shape" fill="#FF9801" fill-rule="nonzero"/><path d="M26.63,50.65 C26.5659553,50.7381596 26.4957818,50.8216996 26.42,50.9 C25.3441052,52.4042036 23.6784053,53.3788926 21.84,53.58 C19.7034535,53.893972 17.6983101,52.4705405 17.29,50.35 C17.22,49.92 17.13,48.69 17.57,48.42 C17.5755228,48.42 17.58,48.4155228 17.58,48.41 C18.66,47.74 20.36,47.21 21.56,47.87 C21.646125,47.9052712 21.7269045,47.9523926 21.8,48.01 C22.59,48.58 22.88,49.56 23.85,49.91 C24.5782766,50.1369407 25.3603307,50.1229128 26.08,49.87 C26.2881578,49.8030819 26.5156532,49.8791784 26.6416548,50.0578716 C26.7676565,50.2365648 26.7629357,50.4764034 26.63,50.65 Z" id="Shape" fill="#FF9801" fill-rule="nonzero"/><path d="M36.09,37.75 C35.44,39.21 33.65,41.85 32.54,42.55 C31.7746953,42.9495302 30.8648581,42.9606711 30.09,42.58 C30.08,42.58 30.07,42.57 30.06,42.57 C29.95,42.52 29.84,42.47 29.74,42.42 C29.71,42.41 29.69,42.39 29.66,42.38 C29.65,42.38 29.64,42.37 29.63,42.37 C29.6111425,42.3602993 29.5909064,42.3535539 29.57,42.35 C29.56,42.34 29.56,42.34 29.55,42.34 C29.147435,42.1299711 28.765722,41.8821924 28.41,41.6 C28.302783,41.1374827 28.2457864,40.6647465 28.24,40.19 L28.24,40.16 C28.271807,39.9986649 28.2785529,39.8333906 28.26,39.67 L28.26,39.65 C28.2522765,38.7904814 28.657751,37.9795324 29.35,37.47 C30.4196936,36.9603858 31.5704433,36.6422373 32.75,36.53 C33.563354,36.3998499 34.386364,36.3396296 35.21,36.35 C35.5422698,36.3585726 35.8482159,36.532818 36.0250992,36.8142233 C36.2019826,37.0956287 36.226343,37.4468708 36.09,37.75 Z" id="Shape" fill="#F57C00" fill-rule="nonzero"/><path d="M33.09,37.75 C32.2686572,39.4986325 31.1331562,41.0815548 29.74,42.42 C29.71,42.41 29.69,42.39 29.66,42.38 C29.65,42.38 29.64,42.37 29.63,42.37 C29.6111425,42.3602993 29.5909064,42.3535539 29.57,42.35 C29.56,42.34 29.56,42.34 29.55,42.34 C29.147435,42.1299711 28.765722,41.8821924 28.41,41.6 C28.302783,41.1374827 28.2457864,40.6647465 28.24,40.19 L28.24,40.16 C28.271807,39.9986649 28.2785529,39.8333906 28.26,39.67 L28.26,39.65 C28.2522765,38.7904814 28.657751,37.9795324 29.35,37.47 C30.4196936,36.9603858 31.5704433,36.6422373 32.75,36.53 C33.1433501,36.8010071 33.286486,37.3146123 33.09,37.75 Z" id="Shape" fill="#FF9801" fill-rule="nonzero"/><path d="M30.86,47.99 C30.8,48.06 30.75,48.14 30.68,48.22 C29.6581606,49.6286481 28.1321666,50.5886631 26.42,50.9 C26.4957818,50.8216996 26.5659553,50.7381596 26.63,50.65 C26.7629357,50.4764034 26.7676565,50.2365648 26.6416548,50.0578716 C26.5156532,49.8791784 26.2881578,49.8030819 26.08,49.87 C25.3603307,50.1229128 24.5782766,50.1369407 23.85,49.91 C22.88,49.56 22.59,48.58 21.8,48.01 C21.7269045,47.9523926 21.646125,47.9052712 21.56,47.87 C21.5428915,47.8075206 21.5295343,47.744074 21.52,47.68 C21.46,47.25 21.36,46.03 21.8,45.76 C22.88,45.08 24.58,44.55 25.78,45.19 C25.87,45.24 25.95,45.29 26.03,45.34 C26.83,45.92 27.11,46.89 28.08,47.25 C28.8089695,47.47204 29.5894624,47.4580401 30.31,47.21 C30.5181578,47.1430819 30.7456532,47.2191784 30.8716548,47.3978716 C30.9976565,47.5765648 30.9929357,47.8164034 30.86,47.99 Z" id="Shape" fill="#FF9801" fill-rule="nonzero"/><path d="M24.18,37.46 C23.6415436,37.998683 23.2908997,38.6964644 23.18,39.45 C23.08,40.48 23.84,41.16 24.01,42.12 C24.02,42.22 24.03,42.31 24.04,42.41 C23.909241,43.7461523 23.1522532,44.9410055 22,45.63 C21.93,45.67 21.87,45.72 21.8,45.76 C21.36,46.03 20.31,45.42 19.94,45.18 C19.91,45.16 19.84,45.11 19.79,45.07 C19.7929706,44.9729092 19.7862709,44.8757638 19.77,44.78 C19.6,43.82 18.84,43.14 18.95,42.11 C19.0585657,41.3528232 19.409398,40.6511586 19.95,40.11 C20.0875197,39.9506591 20.1105277,39.7222583 20.0075509,39.538691 C19.9045741,39.3551236 19.697665,39.2557007 19.49,39.29 C19.3952882,39.3074253 19.3017694,39.330805 19.21,39.36 C20.2347153,37.9704254 21.7447573,37.0172783 23.44,36.69 C23.5322489,36.6652374 23.6257044,36.6452112 23.72,36.63 C23.9316875,36.5903501 24.1449786,36.6907064 24.2493782,36.8790796 C24.3537778,37.0674527 24.3258247,37.3015107 24.18,37.46 Z" id="Shape" fill="#FF9801" fill-rule="nonzero"/><path d="M21.19,16.444 C9.89,16.6 1,18.324 1,20.424 C1,22.104 6.72,23.544 14.82,24.144 C17.35,24.324 20.11,24.424 23,24.424 C24.59,24.424 26.14,24.394 27.64,24.334 C37.56,23.944 45,22.344 45,20.424 C45,18.744 39.33,17.314 31.3,16.714" id="Shape" stroke="#000000" stroke-width="2" stroke-linecap="round" stroke-linejoin="round"/><path d="M1,26.954 C1.05620787,27.3787432 1.31285868,27.7507009 1.69,27.954 C4.13,29.684 12.75,30.954 23,30.954 C33.25,30.954 41.87,29.684 44.31,27.954 C44.6871413,27.7507009 44.9437921,27.3787432 45,26.954" id="Shape" stroke="#000000" stroke-width="2" stroke-linecap="round" stroke-linejoin="round"/><path d="M44.31,27.954 C44.73,34.774 44.87,43.134 44.62,49.954 C44.54,52.134 44.39,50.784 45.05,52.904 C45.15,53.224 45.29,53.554 45.4,53.894 C45.6696461,54.4930316 45.6804982,55.1767122 45.43,55.784 C44.998756,56.6511505 44.0136583,57.0913006 43.08,56.834 L41.21,56.304 C39.51,55.814 37.81,55.154 36.03,55.674 C34.09,56.244 32.45,57.314 30.43,57.654 C28.2988504,57.9338966 26.1479526,58.0342496 24,57.954 L22,57.954 C19.8520474,58.0342496 17.7011496,57.9338966 15.57,57.654 C13.55,57.314 11.91,56.244 9.97,55.674 C8.19,55.154 6.49,55.814 4.79,56.304 L2.92,56.834 C1.98634171,57.0913006 1.00124397,56.6511505 0.57,55.784 C0.319501796,55.1767122 0.330353868,54.4930316 0.6,53.894 C0.71,53.554 0.85,53.224 0.95,52.904 C1.61,50.784 1.46,52.134 1.38,49.954 C1.13,43.134 1.27,34.774 1.69,27.954" id="Shape" stroke="#000000" stroke-width="2" stroke-linecap="round" stroke-linejoin="round"/><path d="M1,26.954 L1,20.424" id="Shape" stroke="#000000" stroke-width="2" stroke-linecap="round" stroke-linejoin="round"/><path d="M45,26.954 L45,20.424" id="Shape" stroke="#000000" stroke-width="2" stroke-linecap="round" stroke-linejoin="round"/><path d="M27.5,13.024 L34.32,2.3 L34.71,1.68 L34.72,1.67 C34.7483903,1.60531852 34.7853918,1.54477056 34.83,1.49" id="Shape" stroke="#000000" stroke-width="2" stroke-linecap="round" stroke-linejoin="round"/><path d="M41,6.594 C40.9414839,6.65583068 40.877932,6.71269291 40.81,6.764 L40.3,7.244 L31.06,15.964" id="Shape" stroke="#000000" stroke-width="2" stroke-linecap="round" stroke-linejoin="round"/><path d="M41,6.59 C40.363,7.361 38.345,6.99 36.642,5.584 C34.939,4.178 34.2,2.265 34.835,1.494 C36.2553933,-0.158727284 38.7373987,-0.370337564 40.4170737,1.01808477 C42.0967487,2.40650711 42.3559402,4.88399568 41,6.59 Z" id="Shape" stroke="#000000" stroke-width="2" stroke-linecap="round" stroke-linejoin="round"/><path d="M27.64,24.334 L30.31,21.104 C31.0525739,20.2106178 31.4593837,19.0857002 31.46,17.924 C31.4622668,17.5152467 31.4084313,17.1081156 31.3,16.714 C31.2457902,16.4564685 31.1653714,16.2051598 31.06,15.964 C30.419484,14.4652982 29.0927656,13.3696376 27.5,13.024 C25.6757268,12.6379147 23.7879522,13.2967095 22.6,14.734 L21.19,16.444 L14.82,24.144" id="Shape" stroke="#000000" stroke-width="2" stroke-linecap="round" stroke-linejoin="round"/><path d="M28.407,41.6 L26.036,43.1 L21.8,45.756 L16.406,49.147 C14.8724952,50.1104802 13.7849585,51.6441119 13.383,53.41" id="Shape" stroke="#000000" stroke-width="2" stroke-linecap="round" stroke-linejoin="round"/><path d="M24.037,42.414 C24.0794664,42.4510663 24.1249582,42.4845162 24.173,42.514 C24.539,42.757 25.596,43.368 26.036,43.092 C27.188,42.368 28.489,40.924 28.242,39.461 C28.071,38.493 27.312,37.813 27.409,36.783 C27.524995,36.0300359 27.8768733,35.333282 28.414,34.793 C28.5615883,34.6342667 28.5900993,34.3985189 28.4846063,34.2091784 C28.3791134,34.019838 28.1636425,33.920027 27.951,33.962 C26.139524,34.2191806 24.5100891,35.2008113 23.436,36.682" id="Shape" stroke="#000000" stroke-width="2" stroke-linecap="round" stroke-linejoin="round"/><path d="M19.2,39.346 C20.2116444,37.9426807 21.7298431,36.9882921 23.433,36.685 C23.525,36.663 23.623,36.649 23.715,36.626 C23.9276425,36.584027 24.1431134,36.683838 24.2486063,36.8731784 C24.3540993,37.0625189 24.3255883,37.2982667 24.178,37.457 C23.6408733,37.997282 23.288995,38.6940359 23.173,39.447 C23.073,40.477 23.835,41.157 24.006,42.125 C24.02,42.225 24.029,42.311 24.034,42.414 C24.087,43.775 22.875,45.08 21.8,45.756 C21.36,46.032 20.3,45.421 19.937,45.178 C19.8889582,45.1485162 19.8434664,45.1150663 19.801,45.078" id="Shape" stroke="#000000" stroke-width="2" stroke-linecap="round" stroke-linejoin="round"/><path d="M19.489,39.286 C19.6995547,39.2491662 19.910237,39.3502525 20.0132569,39.5375408 C20.1162768,39.7248292 20.0888465,39.9568918 19.945,40.115 C19.4083098,40.6569629 19.0580681,41.3556952 18.945,42.11 C18.845,43.141 19.603,43.823 19.771,44.784 C20.028,46.25 18.716,47.695 17.571,48.416 C17.128,48.694 16.071,48.078 15.706,47.834 C13.9706964,46.5479076 13.5566965,44.1229878 14.767,42.334 C15.8155196,40.6723769 17.5430327,39.5572859 19.489,39.286 Z" id="Shape" stroke="#000000" stroke-width="2" stroke-linecap="round" stroke-linejoin="round"/><path d="M30.685,48.216 C32.485199,47.8903296 34.0760248,46.8477035 35.093,45.327 C35.2234012,45.1536106 35.2271063,44.9159111 35.1021726,44.7385417 C34.9772388,44.5611722 34.7521768,44.4846095 34.545,44.549 C33.8252679,44.7988313 33.0448321,44.8138868 32.316,44.592 C31.347,44.233 31.062,43.254 30.265,42.681 C29.053,41.824 27.188,42.371 26.036,43.095 C25.596,43.371 25.688,44.589 25.749,45.023 C25.7555042,45.0798699 25.7668793,45.1360763 25.783,45.191" id="Shape" stroke="#000000" stroke-width="2" stroke-linecap="round" stroke-linejoin="round"/><path d="M21.55,47.852 C21.5338793,47.7970763 21.5225042,47.7408699 21.516,47.684 C21.455,47.25 21.363,46.032 21.803,45.756 C22.878,45.08 24.579,44.556 25.783,45.191 C25.868164,45.2371123 25.9509368,45.2875103 26.031,45.342 C26.831,45.915 27.114,46.894 28.083,47.253 C28.8118321,47.4748868 29.5922679,47.4598313 30.312,47.21 C30.5191768,47.1456095 30.7442388,47.2221722 30.8691726,47.3995417 C30.9941063,47.5769111 30.9904012,47.8146106 30.86,47.988 C30.8,48.061 30.745,48.143 30.685,48.216 C29.6733556,49.6193193 28.1551569,50.5737079 26.452,50.877" id="Shape" stroke="#000000" stroke-width="2" stroke-linecap="round" stroke-linejoin="round"/><path d="M26.63,50.646 C26.7549055,50.472293 26.7554467,50.2383633 26.6313463,50.0640803 C26.5072459,49.8897972 26.2860086,49.8137876 26.081,49.875 C25.3599138,50.1229767 24.5787115,50.1355824 23.85,49.911 C22.876,49.556 22.591,48.575 21.798,48.011 C20.588,47.144 18.717,47.7 17.572,48.42 C17.129,48.698 17.225,49.92 17.287,50.352 C17.6934677,52.4748353 19.7008412,53.9001058 21.839,53.584 C23.7905959,53.3575897 25.5432895,52.2827799 26.63,50.646 Z" id="Shape" stroke="#000000" stroke-width="2" stroke-linecap="round" stroke-linejoin="round"/><path d="M28.407,41.6 C28.407,41.6 30.85,43.608 32.543,42.544 C33.651,41.844 35.443,39.203 36.093,37.744 C36.225739,37.4403875 36.1994608,37.0907372 36.0228328,36.8103753 C35.8462048,36.5300135 35.5421666,36.355352 35.211,36.344 C33.618,36.297 30.458,36.766 29.35,37.463 C27.657,38.527 28.407,41.599 28.407,41.599" id="Shape" stroke="#000000" stroke-width="2" stroke-linecap="round" stroke-linejoin="round"/><path d="M5.386,46.954 C5.386,46.954 4.386,51.954 8.386,51.954" id="Shape" stroke="#000000" stroke-width="2" stroke-linecap="round" stroke-linejoin="round"/><path d="M40.386,46.954 C40.386,46.954 41.386,51.954 37.386,51.954" id="Shape" stroke="#000000" stroke-width="2" stroke-linecap="round" stroke-linejoin="round"/><path d="M26.386,17.954 L20.746,24.404" id="Shape" stroke="#000000" stroke-width="2" stroke-linecap="round" stroke-linejoin="round"/></g></g></svg>
