<svg height="512" viewBox="0 0 128 128" width="512" xmlns="http://www.w3.org/2000/svg"><g><g><path d="m60.912 81.54 38.275-38.276a10.238 10.238 0 0 0 0-14.48 10.238 10.238 0 0 0 -14.48 0l-38.276 38.275a17.72 17.72 0 1 0 14.481 14.481z" fill="#e7ffff"/><path d="m36.29 91.682q-.186-.186-.365-.383a10.267 10.267 0 0 1 -.27-13.259 10.1 10.1 0 0 1 9.509-3.5l3.861.655 41.045-41.048a2.654 2.654 0 1 1 3.754 3.753l-41.045 41.046.654 3.862a10.126 10.126 0 0 1 -17.142 8.874z" fill="#fd652c"/><path d="m93.824 34.147a2.657 2.657 0 0 0 -3.754 0l-17.058 17.058 3.754 3.754 17.058-17.059a2.657 2.657 0 0 0 0-3.753z" fill="#acf0f0"/></g><g fill="#4e1b00"><path d="m100.447 27.537a11.988 11.988 0 0 0 -16.955 0l-7.227 7.228a1.749 1.749 0 0 0 2.474 2.474l7.228-7.227a8.49 8.49 0 0 1 12.006 12.006l-33.811 33.81a1.75 1.75 0 0 0 2.474 2.472l33.811-33.811a11.988 11.988 0 0 0 0-16.955z"/><path d="m60.642 79.805a1.75 1.75 0 0 0 -1.433 2.017 16.008 16.008 0 0 1 -4.437 13.978 15.971 15.971 0 0 1 -23.149-.6 15.959 15.959 0 0 1 14.539-26.425 1.749 1.749 0 0 0 1.53-.488l20.546-20.55a1.75 1.75 0 0 0 -2.476-2.474l-19.925 19.928a19.311 19.311 0 0 0 -17.314 6.845 19.471 19.471 0 0 0 14.471 31.933c.168 0 .334.006.5.006a19.287 19.287 0 0 0 13.752-5.7 19.515 19.515 0 0 0 5.414-17.037 1.746 1.746 0 0 0 -2.018-1.433z"/><path d="m71.46 43.794a1.744 1.744 0 0 0 1.238-.513l.792-.792a1.75 1.75 0 1 0 -2.476-2.474l-.791.792a1.75 1.75 0 0 0 1.237 2.987z"/><path d="m42.381 92.82c-.179-.023-.358-.052-.534-.087a1.75 1.75 0 0 0 -.676 3.434q.375.075.756.124a1.773 1.773 0 0 0 .229.015 1.75 1.75 0 0 0 .225-3.486z"/><path d="m89.249 40.015a1.75 1.75 0 0 0 2.475 2.474l3.36-3.36a4.4 4.4 0 1 0 -6.229-6.229l-40.406 40.406-2.97-.5a11.828 11.828 0 0 0 -11.143 4.1 12.048 12.048 0 0 0 .316 15.559c.137.15.278.3.422.442l2.476-2.473c-.1-.105-.206-.21-.3-.319a8.489 8.489 0 0 1 -.227-10.961 8.357 8.357 0 0 1 7.875-2.9l3.86.655a1.748 1.748 0 0 0 1.531-.488l22.75-22.75 1.279 1.279-22.754 22.75a1.752 1.752 0 0 0 -.488 1.53l.655 3.863a8.388 8.388 0 0 1 -4.424 8.881 1.749 1.749 0 1 0 1.6 3.111 11.885 11.885 0 0 0 6.274-12.577l-.5-2.972 32.675-32.68a1.749 1.749 0 1 0 -2.474-2.474l-8.093 8.093-1.28-1.28 15.821-15.82a.9.9 0 1 1 1.279 1.279z"/></g></g></svg>