<svg viewBox="-143 0 512 512" xmlns="http://www.w3.org/2000/svg"><path d="m206.769531 118.152344v300.308594c0 51.574218-41.964843 93.539062-93.539062 93.539062s-93.539063-41.964844-93.539063-93.539062v-300.308594c0-8.152344 6.617188-14.769532 14.769532-14.769532h157.539062c8.152344 0 14.769531 6.617188 14.769531 14.769532zm0 0" fill="#e0f2f1"/><path d="m226.460938 14.769531v103.382813c0 8.152344-6.617188 14.769531-14.769532 14.769531h-196.921875c-8.152343 0-14.769531-6.617187-14.769531-14.769531v-103.382813c0-8.152343 6.617188-14.769531 14.769531-14.769531h196.921875c8.152344 0 14.769532 6.617188 14.769532 14.769531zm0 0" fill="#64b5f6"/><path d="m78.777344 0v59.078125c0 8.152344-6.613282 14.769531-14.765625 14.769531-8.164063 0-14.769531-6.617187-14.769531-14.769531v-59.078125zm0 0" fill="#3949ab"/><path d="m128 0v59.078125c0 8.152344-6.617188 14.769531-14.769531 14.769531-8.152344 0-14.769531-6.617187-14.769531-14.769531v-59.078125zm0 0" fill="#3949ab"/><path d="m192 103.382812h-79.257812v408.609376c.164062.003906.324218.007812.488281.007812 51.574219 0 93.539062-41.964844 93.539062-93.539062v-300.308594c0-8.152344-6.617187-14.769532-14.769531-14.769532zm0 0" fill="#b2dfdb"/><path d="m211.691406 0h-98.949218v132.921875h98.949218c8.152344 0 14.769532-6.617187 14.769532-14.769531v-103.382813c0-8.152343-6.617188-14.769531-14.769532-14.769531zm0 0" fill="#1e88e5"/><path d="m112.742188 0v73.820312c.164062.007813.324218.027344.488281.027344 8.152343 0 14.769531-6.617187 14.769531-14.769531v-59.078125zm0 0" fill="#283593"/><path d="m177.222656 0v59.078125c0 8.152344-6.609375 14.769531-14.769531 14.769531-8.152344 0-14.769531-6.617187-14.769531-14.769531v-59.078125zm0 0" fill="#283593"/><g fill="#00796b"><path d="m88.617188 177.230469c0 8.152343-6.617188 14.769531-14.769532 14.769531h-54.15625v-29.539062h54.15625c8.152344 0 14.769532 6.617187 14.769532 14.769531zm0 0"/><path d="m88.617188 236.308594c0 8.152344-6.617188 14.769531-14.769532 14.769531h-54.15625v-29.539063h54.15625c8.152344 0 14.769532 6.617188 14.769532 14.769532zm0 0"/><path d="m88.617188 295.382812c0 8.15625-6.617188 14.769532-14.769532 14.769532h-54.15625v-29.535156h54.15625c8.152344 0 14.769532 6.613281 14.769532 14.765624zm0 0"/><path d="m88.617188 354.460938c0 8.152343-6.617188 14.769531-14.769532 14.769531h-54.15625v-29.539063h54.15625c8.152344 0 14.769532 6.617188 14.769532 14.769532zm0 0"/></g></svg>