<svg id="Capa_1" enable-background="new 0 0 512 512" height="512" viewBox="0 0 512 512" width="512" xmlns="http://www.w3.org/2000/svg"><g><g><path clip-rule="evenodd" d="m375.69 143.32c16.384 11.917 27.864 28.715 32.966 47.952 29.168 10.839 63.098 7.491 93.343-12.4-15.448-32.772-42.66-53.343-73.189-59.302-14.4 13.762-32.909 22.104-53.12 23.75z" fill="#ffda8f" fill-rule="evenodd"/></g><g><path clip-rule="evenodd" d="m248.474 272.394c1.446 6.327 3.43 12.343 5.868 17.961 13.606 31.609 41.668 51.414 73.954 54.024l41.697-11.747-.17-.568c-15.336-53.711-69.221-79.759-121.349-59.67z" fill="#ffda8f" fill-rule="evenodd"/></g><g><path clip-rule="evenodd" d="m190.337 308.372c13.606 31.609 41.668 51.414 73.954 54.024l64.005-18.018c-32.286-2.61-60.348-22.416-73.954-54.024-20.834-8.711-45.382-9.392-69.872.057 1.473 6.328 3.429 12.343 5.867 17.961z" fill="#fff3da" fill-rule="evenodd"/></g><g><path clip-rule="evenodd" d="m126.332 326.39c13.606 31.609 41.668 51.414 73.954 54.024l64.005-18.018c-32.286-2.61-60.348-22.416-73.954-54.024-20.834-8.711-45.382-9.392-69.872.057 1.474 6.328 3.43 12.343 5.867 17.961z" fill="#ffda8f" fill-rule="evenodd"/></g><g><path clip-rule="evenodd" d="m56.488 326.447c4.507 19.692 13.974 36.064 26.702 48.236 14.371 13.761 32.909 22.103 53.092 23.749l64.005-18.018c-32.286-2.61-60.348-22.416-73.954-54.024-20.835-8.711-45.354-9.392-69.845.057z" fill="#fff3da" fill-rule="evenodd"/></g><g><path clip-rule="evenodd" d="m83.19 374.683c-30.557 5.959-57.769 26.53-73.189 59.302 30.217 19.919 64.146 23.238 93.343 12.4 5.102-19.238 16.554-36.035 32.938-47.952-20.183-1.647-38.721-9.989-53.092-23.75z" fill="#ffda8f" fill-rule="evenodd"/></g><g><path clip-rule="evenodd" d="m136.282 398.432c-16.384 11.917-27.836 28.715-32.966 47.952-4.507 17.024-4.053 35.95 2.353 55.131 25.795-4.738 46.402-18.103 59.611-36.404-4.819-34.077 8.816-65.629 35.007-84.697z" fill="#ffda8f" fill-rule="evenodd"/></g><g><path clip-rule="evenodd" d="m200.286 380.414c-26.191 19.067-39.826 50.619-35.007 84.697.879 6.044 2.324 12.201 4.394 18.386 25.795-4.738 46.402-18.103 59.611-36.404-4.819-34.077 8.816-65.629 35.007-84.697z" fill="#fff3da" fill-rule="evenodd"/></g><g><path clip-rule="evenodd" d="m264.291 362.397c-26.191 19.067-39.826 50.619-35.007 84.697.879 6.044 2.324 12.201 4.365 18.386 25.823-4.738 46.43-18.103 59.64-36.404-4.819-34.077 8.787-65.629 35.007-84.697z" fill="#ffda8f" fill-rule="evenodd"/></g><g><path clip-rule="evenodd" d="m328.296 344.379c-26.22 19.067-39.826 50.619-35.007 84.697.879 6.072 2.324 12.201 4.365 18.386 54.112-9.931 85.349-57.77 73.671-109.609v-.028c-.34-1.561-.737-3.093-1.162-4.597l-.17-.596z" fill="#fff3da" fill-rule="evenodd"/></g><g><path clip-rule="evenodd" d="m311.685 125.303c26.22 19.067 39.826 50.591 35.007 84.668 13.237 18.33 33.817 31.694 59.64 36.432 6.406-19.181 6.86-38.106 2.324-55.131-5.102-19.238-16.582-36.035-32.966-47.952z" fill="#ffda8f" fill-rule="evenodd"/></g><g><path clip-rule="evenodd" d="m247.681 107.285c26.22 19.067 39.854 50.619 35.007 84.668 13.237 18.33 33.845 31.694 59.639 36.432 2.069-6.186 3.515-12.343 4.365-18.415 4.819-34.077-8.787-65.601-35.007-84.668z" fill="#fff3da" fill-rule="evenodd"/></g><g><path clip-rule="evenodd" d="m183.704 89.267c26.191 19.067 39.826 50.619 34.979 84.668 13.237 18.33 33.845 31.694 59.64 36.432 2.069-6.186 3.515-12.343 4.365-18.415 4.847-34.049-8.787-65.601-35.007-84.668z" fill="#ffda8f" fill-rule="evenodd"/></g><g><path clip-rule="evenodd" d="m140.675 82.713c-11.678 51.84 19.53 99.707 73.642 109.638 2.069-6.186 3.515-12.343 4.365-18.415 4.847-34.049-8.787-65.601-34.979-84.668l-41.725-11.747-.142.596c-.424 1.503-.821 3.035-1.161 4.596z" fill="#fff3da" fill-rule="evenodd"/></g><g><path clip-rule="evenodd" d="m263.497 17.282c-52.127-20.089-105.984 5.959-121.348 59.643l-.17.596 41.725 11.747c32.286-2.61 60.348-22.416 73.954-54.024 2.438-5.619 4.394-11.634 5.839-17.962z" fill="#ffda8f" fill-rule="evenodd"/></g><g><path clip-rule="evenodd" d="m257.658 35.243c-13.606 31.609-41.668 51.414-73.954 54.024l63.976 18.018c32.314-2.61 60.348-22.416 73.982-54.024 2.438-5.618 4.394-11.633 5.839-17.989-24.489-9.421-49.009-8.768-69.843-.029z" fill="#fff3da" fill-rule="evenodd"/></g><g><path clip-rule="evenodd" d="m321.663 53.261c-13.634 31.609-41.668 51.414-73.982 54.024l64.005 18.018c32.314-2.61 60.348-22.416 73.982-54.024 2.409-5.618 4.394-11.633 5.839-17.989-24.491-9.421-49.038-8.769-69.844-.029z" fill="#ffda8f" fill-rule="evenodd"/></g><g><path clip-rule="evenodd" d="m385.668 71.278c-13.634 31.609-41.668 51.414-73.982 54.024l64.005 18.018c20.211-1.646 38.72-9.988 53.12-23.749 12.727-12.173 22.195-28.544 26.702-48.264-24.492-9.421-49.039-8.768-69.845-.029z" fill="#fff3da" fill-rule="evenodd"/></g><path d="m508.132 333.502c-13.855-10.759-35.798-16.702-65.219-17.663-20.315-.665-43.971 1.247-66.161 5.28-9.085-24.535-26.16-43.96-48.764-55.228-25.431-12.678-54.947-13.682-83.109-2.828-4.641 1.789-7.262 6.715-6.151 11.563.056.244.121.482.178.725-18.835-3.572-38.863-1.666-58.034 5.731-4.639 1.79-7.258 6.715-6.148 11.561.056.244.121.484.178.727-18.827-3.568-38.854-1.663-58.032 5.727-4.643 1.789-7.264 6.72-6.15 11.569.056.242.12.479.177.72-18.826-3.569-38.844-1.663-58.006 5.73-4.639 1.79-7.258 6.715-6.148 11.561 3.508 15.323 9.876 29.057 18.473 40.647-27.706 10.075-50.621 31.414-64.261 60.402-2.117 4.499-.607 9.87 3.544 12.606 20.198 13.314 42.658 20.133 64.919 20.132 7.172 0 14.32-.735 21.369-2.162-1.311 14.395.406 29.459 5.4 44.384 1.384 4.136 5.248 6.828 9.477 6.828.599 0 1.206-.054 1.813-.166 20.22-3.714 38.289-12.55 52.482-25.413.08.244.151.489.233.734 1.384 4.136 5.248 6.828 9.477 6.828.599 0 1.206-.054 1.813-.166 20.222-3.715 38.282-12.547 52.458-25.401.078.239.147.477.227.716 1.382 4.139 5.248 6.834 9.479 6.833.598 0 1.205-.054 1.812-.165 20.237-3.714 38.307-12.546 52.487-25.403.078.239.148.478.227.717 1.382 4.139 5.248 6.834 9.479 6.833.598 0 1.205-.054 1.812-.165 28.887-5.302 53.118-20.818 68.231-43.692 14.02-21.22 19.047-47.012 14.362-73.117 43.014-7.571 93.439-7.012 113.814 8.809 4.362 3.387 10.645 2.597 14.032-1.765 3.382-4.36 2.592-10.642-1.77-14.029zm-189.067-49.712c17.304 8.625 30.569 23.377 38.07 42.073l-29.753 8.377c-31.114-3.19-56.428-24.42-66.723-55.366 20.15-5.629 40.601-3.959 58.406 4.916zm-72.133 14.419c9.792 20.401 25.391 36.434 44.611 46.122l-28.159 7.928c-31.118-3.188-56.435-24.42-66.73-55.369 17.109-4.78 34.574-4.337 50.278 1.319zm-64.005 18.017c9.792 20.402 25.393 36.436 44.614 46.123l-28.157 7.927c-31.096-3.184-56.413-24.416-66.729-55.368 17.118-4.775 34.579-4.332 50.272 1.318zm-63.989 18.023c9.801 20.398 25.401 36.43 44.612 46.117l-28.163 7.929c-31.107-3.182-56.419-24.416-66.714-55.37 17.106-4.777 34.566-4.332 50.265 1.324zm-95.731 96.021c13.086-22.74 33.382-38.661 57.127-44.702 9.999 8.567 21.644 15.027 34.44 18.916-8.892 9.992-15.466 21.575-19.541 34.096-23.437 7.231-49.047 4.244-72.026-8.31zm89.482 59.351c-7.332-31.784 3.218-63.114 28.117-82.073l28.149-7.925c-11.352 18.288-16.314 40.101-14.05 62.61-10.433 13.017-25.105 22.517-42.216 27.388zm64.005-18.017c-7.333-31.787 3.219-63.119 28.123-82.078l28.145-7.924c-11.352 18.285-16.319 40.096-14.068 62.605-10.412 13.02-25.079 22.524-42.2 27.397zm63.983-18.017c-7.313-31.792 3.249-63.128 28.149-82.082l28.143-7.923c-11.353 18.286-16.322 40.098-14.07 62.608-10.413 13.02-25.089 22.525-42.222 27.397zm110.326-51.005c-10.534 15.944-26.772 27.447-46.321 32.991-7.316-31.797 3.248-63.135 28.154-82.09l29.709-8.364c3.436 20.642-.582 40.874-11.542 57.463z"/><g><path d="m511.044 174.609c-13.664-28.987-36.586-50.325-64.279-60.399 8.61-11.597 14.986-25.341 18.494-40.673 1.11-4.85-1.515-9.778-6.158-11.564-19.206-7.387-39.231-9.285-58.029-5.709.059-.249.125-.494.182-.745 1.11-4.85-1.515-9.778-6.158-11.564-19.204-7.387-39.229-9.285-58.029-5.709.059-.249.125-.494.182-.745 1.11-4.85-1.515-9.778-6.158-11.564-19.202-7.386-39.224-9.284-58.022-5.71.056-.239.12-.474.175-.714 1.11-4.848-1.511-9.774-6.152-11.563-28.15-10.848-57.654-9.849-83.077 2.813-22.614 11.263-39.702 30.692-48.8 55.236-22.172-4.039-45.821-5.953-66.145-5.285-29.405.968-51.343 6.914-65.202 17.676-4.362 3.387-5.152 9.669-1.765 14.032 3.387 4.362 9.67 5.152 14.032 1.765 20.409-15.848 70.827-16.401 113.81-8.81-1.708 9.498-2.142 19.011-1.266 28.347.516 5.499 5.394 9.534 10.89 9.023 5.499-.516 9.538-5.392 9.023-10.89-.672-7.171-.374-14.498.854-21.845l29.736 8.372c24.897 18.959 35.447 50.288 28.118 82.07-6.213-1.763-12.112-4.124-17.616-7.057-4.875-2.597-10.931-.751-13.528 4.124-2.597 4.874-.75 10.931 4.124 13.528 9.865 5.255 20.704 9.002 32.218 11.136 2.515.467 5.155-.064 7.295-1.463 2.182-1.426 3.447-3.498 4.243-5.929 14.192 12.863 32.261 21.699 52.482 25.413 2.51.462 5.144-.07 7.28-1.467 2.181-1.426 3.447-3.498 4.242-5.928 14.195 12.867 32.265 21.703 52.485 25.413 2.51.46 5.143-.071 7.279-1.468 2.181-1.426 3.446-3.498 4.242-5.928 14.195 12.867 32.264 21.703 52.484 25.413 4.84.888 9.733-2.004 11.29-6.67 4.981-14.927 6.69-29.989 5.377-44.379 7.037 1.425 14.175 2.158 21.343 2.158 22.247-.001 44.726-6.816 64.956-20.12 4.158-2.738 5.671-8.117 3.548-12.621zm-67.718-96.816c-10.293 30.944-35.615 52.183-66.744 55.389l-28.171-7.931c19.224-9.689 34.827-25.719 44.622-46.11 15.666-5.678 33.135-6.131 50.293-1.348zm-64.004-18.018c-10.292 30.942-35.611 52.18-66.738 55.389l-28.174-7.932c19.222-9.689 34.824-25.718 44.619-46.109 15.665-5.678 33.136-6.129 50.293-1.348zm-64.005-18.017c-10.291 30.939-35.608 52.178-66.731 55.388l-28.167-7.93c19.221-9.689 34.823-25.721 44.616-46.114 15.663-5.674 33.13-6.125 50.282-1.344zm-122.384-13.091c17.798-8.864 38.239-10.529 58.379-4.905-10.292 30.929-35.605 52.161-66.718 55.367l-29.763-8.38c7.512-18.703 20.79-33.459 38.102-42.082zm36.154 142.419c2.264-22.508-2.697-44.319-14.048-62.607l28.11 7.914c24.924 18.953 35.487 50.288 28.153 82.081-17.111-4.871-31.783-14.371-42.215-27.388zm64.004 18.017c2.263-22.51-2.701-44.321-14.058-62.607l28.125 7.918c24.914 18.95 35.475 50.283 28.147 82.078-17.109-4.867-31.78-14.368-42.214-27.389zm106.213 45.405c-17.107-4.869-31.778-14.371-42.211-27.392 2.259-22.508-2.706-44.318-14.058-62.601l28.134 7.921c24.891 18.937 35.448 50.265 28.135 82.072zm17.439-51.045c-4.077-12.525-10.652-24.109-19.546-34.099 12.795-3.893 24.44-10.352 34.439-18.913 23.734 6.035 44.038 21.957 57.147 44.702-23.021 12.552-48.638 15.538-72.04 8.31z"/><path d="m148.704 144.817c-4.94 2.47-6.942 8.477-4.472 13.416l.028.057c1.749 3.497 5.262 5.507 8.918 5.507 1.508 0 3.041-.342 4.484-1.063 4.94-2.47 6.928-8.505 4.458-13.445-2.47-4.939-8.475-6.942-13.416-4.472z"/></g></g></svg>