<?xml version="1.0" standalone="no"?>
<!DOCTYPE svg PUBLIC "-//W3C//DTD SVG 20010904//EN"
 "http://www.w3.org/TR/2001/REC-SVG-20010904/DTD/svg10.dtd">
<svg version="1.0" xmlns="http://www.w3.org/2000/svg"
 width="196.000000pt" height="196.000000pt" viewBox="0 0 196.000000 196.000000"
 preserveAspectRatio="xMidYMid meet">
<metadata>
Created by potrace 1.11, written by Peter Selinger 2001-2013
</metadata>
<g transform="translate(0.000000,196.000000) scale(0.100000,-0.100000)"
fill="#000000" stroke="none">
<path d="M915 1895 c-16 -9 -45 -26 -64 -40 -30 -22 -44 -25 -122 -25 -95 0
-92 2 -152 -72 -6 -8 -33 -23 -59 -32 -25 -9 -52 -24 -58 -32 -15 -17 -16 -62
-2 -76 7 -7 -3 -21 -29 -45 -45 -41 -139 -156 -139 -171 0 -5 -7 -16 -17 -23
-15 -13 -15 -12 -4 11 l12 25 -20 -23 c-11 -12 -27 -48 -36 -80 -22 -80 -23
-82 -34 -82 -13 0 -25 45 -17 65 12 31 -6 13 -20 -20 -18 -44 -18 -92 1 -129
19 -37 13 -44 -15 -16 -14 14 -20 29 -16 42 3 13 1 17 -5 11 -26 -26 -10 -163
19 -163 6 0 12 -7 15 -15 12 -29 -45 9 -59 40 -13 30 -13 30 -14 -23 0 -58 22
-108 52 -118 27 -8 22 -22 -7 -17 -27 6 -41 19 -48 48 -2 11 -5 1 -6 -23 -2
-62 28 -110 81 -132 22 -8 22 -9 -5 -9 -17 -1 -38 9 -53 24 l-25 25 7 -38 c12
-63 50 -104 105 -115 16 -3 11 -5 -15 -6 -25 0 -47 5 -59 17 -16 14 -15 7 8
-36 34 -64 41 -69 85 -75 49 -7 50 -9 7 -16 l-39 -6 32 -44 c28 -38 35 -42 61
-37 16 3 29 1 29 -4 0 -6 -9 -10 -20 -10 -29 0 -25 -13 15 -54 30 -31 38 -35
55 -26 11 6 20 7 20 1 0 -5 -7 -12 -16 -15 -13 -5 -8 -13 22 -41 22 -19 45
-33 52 -30 7 2 12 -4 12 -15 0 -10 11 -27 25 -38 67 -53 282 -145 370 -159 17
-3 50 -9 75 -13 66 -13 226 -9 295 7 94 21 199 60 266 99 125 74 315 292 386
444 72 155 80 406 18 585 -62 183 -177 338 -330 447 -59 41 -74 58 -96 108
-15 32 -38 65 -50 74 -27 17 -98 23 -147 12 -27 -6 -40 -3 -72 19 -75 52 -193
70 -255 40z"/>
</g>
</svg>
