<svg version="1" xmlns="http://www.w3.org/2000/svg" width="261.333" height="261.333" viewBox="0 0 196.000000 196.000000"><path d="M91.5 6.5c-1.6.9-4.5 2.6-6.4 4-3 2.2-4.4 2.5-12.2 2.5-9.5 0-9.2-.2-15.2 7.2-.6.8-3.3 2.3-5.9 3.2-2.5.9-5.2 2.4-5.8 3.2-1.5 1.7-1.6 6.2-.2 7.6.7.7-.3 2.1-2.9 4.5C38.4 42.8 29 54.3 29 55.8c0 .5-.7 1.6-1.7 2.3-1.5 1.3-1.5 1.2-.4-1.1l1.2-2.5-2 2.3c-1.1 1.2-2.7 4.8-3.6 8-2.2 8-2.3 8.2-3.4 8.2-1.3 0-2.5-4.5-1.7-6.5 1.2-3.1-.6-1.3-2 2-1.8 4.4-1.8 9.2.1 12.9 1.9 3.7 1.3 4.4-1.5 1.6-1.4-1.4-2-2.9-1.6-4.2.3-1.3.1-1.7-.5-1.1-2.6 2.6-1 16.3 1.9 16.3.6 0 1.2.7 1.5 1.5 1.2 2.9-4.5-.9-5.9-4-1.3-3-1.3-3-1.4 2.3 0 5.8 2.2 10.8 5.2 11.8 2.7.8 2.2 2.2-.7 1.7-2.7-.6-4.1-1.9-4.8-4.8-.2-1.1-.5-.1-.6 2.3-.2 6.2 2.8 11 8.1 13.2 2.2.8 2.2.9-.5.9-1.7.1-3.8-.9-5.3-2.4L6.9 114l.7 3.8c1.2 6.3 5 10.4 10.5 11.5 1.6.3 1.1.5-1.5.6-2.5 0-4.7-.5-5.9-1.7-1.6-1.4-1.5-.7.8 3.6 3.4 6.4 4.1 6.9 8.5 7.5 4.9.7 5 .9.7 1.6l-3.9.6 3.2 4.4c2.8 3.8 3.5 4.2 6.1 3.7 1.6-.3 2.9-.1 2.9.4 0 .6-.9 1-2 1-2.9 0-2.5 1.3 1.5 5.4 3 3.1 3.8 3.5 5.5 2.6 1.1-.6 2-.7 2-.1 0 .5-.7 1.2-1.6 1.5-1.3.5-.8 1.3 2.2 4.1 2.2 1.9 4.5 3.3 5.2 3 .7-.2 1.2.4 1.2 1.5 0 1 1.1 2.7 2.5 3.8 6.7 5.3 28.2 14.5 37 15.9 1.7.3 5 .9 7.5 1.3 6.6 1.3 22.6.9 29.5-.7 9.4-2.1 19.9-6 26.6-9.9 12.5-7.4 31.5-29.2 38.6-44.4 7.2-15.5 8-40.6 1.8-58.5-6.2-18.3-17.7-33.8-33-44.7-5.9-4.1-7.4-5.8-9.6-10.8-1.5-3.2-3.8-6.5-5-7.4-2.7-1.7-9.8-2.3-14.7-1.2-2.7.6-4 .3-7.2-1.9-7.5-5.2-19.3-7-25.5-4z"/></svg>